<?xml version="1.0" standalone="no"?>
<!DOCTYPE svg PUBLIC "-//W3C//DTD SVG 20010904//EN"
 "http://www.w3.org/TR/2001/REC-SVG-20010904/DTD/svg10.dtd">
<svg version="1.0" xmlns="http://www.w3.org/2000/svg"
 width="512.000000pt" height="512.000000pt" viewBox="0 0 512.000000 512.000000"
 preserveAspectRatio="xMidYMid meet">

<g transform="translate(0.000000,512.000000) scale(0.100000,-0.100000)"
fill="#000000" stroke="none">
<path d="M2400 5109 c-512 -27 -1000 -214 -1430 -548 -106 -82 -315 -289 -404
-401 -299 -373 -486 -820 -547 -1305 -18 -145 -16 -473 5 -625 63 -464 250
-903 540 -1270 78 -98 301 -321 395 -395 768 -604 1768 -730 2654 -335 727
324 1284 1016 1445 1795 54 259 69 604 38 844 -14 102 -19 118 -45 145 -15 17
-27 38 -24 46 4 13 3 13 -6 0 -6 -8 -8 -24 -4 -35 6 -20 5 -20 -16 -1 -11 11
-21 29 -22 40 0 12 -3 15 -6 8 -7 -19 -33 5 -33 32 0 18 -2 19 -11 6 -9 -12
-10 -11 -6 7 3 12 2 23 -2 25 -4 2 -19 47 -35 100 -16 54 -32 95 -36 93 -4 -3
1 -32 11 -66 21 -67 24 -95 10 -103 -5 -4 -7 3 -4 15 3 12 0 25 -7 29 -7 4
-29 58 -50 119 -24 70 -48 121 -64 137 l-25 26 16 -41 c9 -22 20 -38 24 -35 5
3 6 -1 4 -8 -3 -8 1 -33 9 -56 8 -23 13 -42 9 -42 -3 0 1 -7 8 -17 11 -13 11
-15 1 -12 -8 3 -30 49 -51 104 -21 55 -44 112 -52 127 -18 32 -86 108 -98 108
-13 0 -22 30 -14 43 3 7 3 9 -2 5 -4 -4 -14 0 -22 10 -8 9 -11 11 -7 3 5 -10
3 -12 -5 -7 -7 5 -10 15 -7 23 3 8 1 11 -4 8 -6 -3 -10 -2 -10 3 0 6 -13 24
-29 41 -20 21 -35 29 -51 26 -13 -2 -20 -2 -16 2 3 4 -51 65 -121 137 -290
296 -518 518 -526 510 -4 -4 -4 3 -2 16 3 16 -5 31 -26 51 -17 16 -35 29 -41
29 -5 0 -6 4 -3 10 3 5 0 7 -8 4 -8 -3 -18 0 -23 7 -5 8 -3 10 7 5 8 -4 6 -1
-3 7 -10 8 -14 18 -10 22 4 5 2 5 -5 2 -13 -8 -43 1 -43 14 0 12 -76 80 -108
98 -15 8 -72 31 -127 52 -55 21 -101 43 -104 51 -3 10 -1 10 12 -1 10 -7 17
-11 17 -8 0 4 19 -1 42 -9 23 -8 48 -12 56 -9 7 2 11 1 8 -4 -3 -4 13 -15 35
-24 l41 -16 -26 25 c-16 16 -67 40 -137 64 -61 21 -115 43 -119 50 -4 7 -17
10 -29 7 -12 -3 -19 -1 -15 4 8 14 36 11 103 -10 34 -10 63 -15 66 -11 2 4
-39 20 -93 36 -53 16 -98 31 -100 35 -2 4 -13 5 -25 2 -18 -4 -19 -3 -7 6 13
9 12 11 -6 11 -27 0 -51 26 -32 33 7 3 4 6 -8 6 -11 1 -29 11 -40 22 -19 21
-19 22 1 16 11 -4 27 -2 35 4 13 9 13 10 0 6 -8 -3 -29 9 -46 25 -27 26 -42
30 -145 43 -148 18 -302 22 -469 14z m1356 -645 c1 -9 0 -13 -4 -10 -3 4 -7
14 -8 22 -1 9 0 13 4 10 3 -4 7 -14 8 -22z m-676 -19 c36 -18 60 -48 75 -91
10 -30 22 -41 66 -63 39 -19 60 -37 76 -66 21 -37 23 -53 23 -206 l0 -166 77
-7 c42 -3 196 -6 342 -6 380 -1 503 -10 566 -42 90 -47 153 -126 174 -220 5
-23 11 -189 12 -368 l3 -325 -25 -55 c-27 -58 -59 -96 -101 -124 l-25 -16 -6
-428 c-11 -651 -23 -900 -48 -966 -26 -72 -96 -148 -165 -182 -50 -24 -74 -28
-217 -37 -220 -14 -2352 -14 -2627 0 -201 10 -219 12 -272 37 -72 34 -134 96
-166 166 -32 68 -36 138 -52 879 l-12 523 -57 57 c-93 90 -94 97 -89 499 4
323 5 339 26 386 31 67 64 110 115 145 87 59 102 61 582 69 l440 7 5 175 c5
160 7 178 28 212 21 33 89 78 120 78 7 0 12 10 12 21 0 29 34 83 68 105 23 16
55 20 197 25 269 10 825 0 855 -16z m1406 -697 c3 -4 -1 -5 -10 -4 -8 1 -18 5
-22 8 -3 4 1 5 10 4 8 -1 18 -5 22 -8z"/>
<path d="M1960 4016 c0 -74 -3 -141 -6 -150 -6 -14 51 -16 600 -16 l606 0 0
150 0 150 -600 0 -600 0 0 -134z"/>
<path d="M2260 2496 l0 -46 300 0 300 0 0 30 c0 17 -1 30 -2 31 -5 2 -349 20
-475 25 l-123 6 0 -46z"/>
<path d="M3086 4961 c-3 -4 7 -8 22 -7 15 0 43 -3 62 -7 34 -6 33 -6 -5 8 -47
16 -72 18 -79 6z"/>
<path d="M3218 4933 c7 -3 16 -2 19 1 4 3 -2 6 -13 5 -11 0 -14 -3 -6 -6z"/>
<path d="M3780 4446 c0 -2 12 -12 28 -21 l27 -18 -19 21 c-17 20 -36 29 -36
18z"/>
<path d="M4425 3807 c10 -15 20 -25 23 -22 3 3 -5 16 -17 28 l-23 22 17 -28z"/>
<path d="M4931 3224 c0 -11 3 -14 6 -6 3 7 2 16 -1 19 -3 4 -6 -2 -5 -13z"/>
<path d="M4947 3170 c4 -19 7 -47 7 -62 -1 -15 3 -25 7 -22 12 7 10 32 -6 79
-14 38 -14 39 -8 5z"/>
</g>
</svg>
